#N canvas 0 241 1276 523 10;
#X declare -lib mrpeach;
#X obj 143 67 tgl 15 0 empty empty empty 17 7 0 10 -262144 -1 -1 0
1;
#X obj 194 68 tgl 15 0 empty empty empty 17 7 0 10 -262144 -1 -1 0
1;
#X obj 22 44 metro 500;
#N canvas 299 167 450 300 bubble 0;
#X obj 96 66 inlet;
#X obj 156 66 inlet;
#X obj 97 210 outlet;
#X restore 143 92 pd bubble;
#X floatatom 143 120 5 0 0 0 - - -;
#X obj 7 467 import mrpeach;
#X obj 125 430 udpsend;
#X obj 224 66 tgl 15 0 empty empty empty 17 7 0 10 -262144 -1 -1 0
1;
#X obj 275 67 tgl 15 0 empty empty empty 17 7 0 10 -262144 -1 -1 0
1;
#N canvas 299 167 450 300 bubble 0;
#X obj 96 66 inlet;
#X obj 156 66 inlet;
#X obj 97 210 outlet;
#X restore 224 91 pd bubble;
#X floatatom 224 119 5 0 0 0 - - -;
#X obj 140 155 tgl 15 0 empty empty empty 17 7 0 10 -262144 -1 -1 0
1;
#X obj 191 156 tgl 15 0 empty empty empty 17 7 0 10 -262144 -1 -1 0
1;
#N canvas 299 167 450 300 bubble 0;
#X obj 96 66 inlet;
#X obj 156 66 inlet;
#X obj 97 210 outlet;
#X restore 140 180 pd bubble;
#X floatatom 140 208 5 0 0 0 - - -;
#X obj 221 153 tgl 15 0 empty empty empty 17 7 0 10 -262144 -1 -1 0
1;
#X obj 272 154 tgl 15 0 empty empty empty 17 7 0 10 -262144 -1 -1 0
1;
#N canvas 299 167 450 300 bubble 0;
#X obj 96 66 inlet;
#X obj 156 66 inlet;
#X obj 97 210 outlet;
#X restore 221 178 pd bubble;
#X floatatom 221 206 5 0 0 0 - - -;
#X obj 404 60 tgl 15 0 empty empty empty 17 7 0 10 -262144 -1 -1 0
1;
#X obj 455 61 tgl 15 0 empty empty empty 17 7 0 10 -262144 -1 -1 0
1;
#N canvas 299 167 450 300 bubble 0;
#X obj 96 66 inlet;
#X obj 156 66 inlet;
#X obj 97 210 outlet;
#X restore 404 85 pd bubble;
#X floatatom 404 113 5 0 0 0 - - -;
#X obj 482 61 tgl 15 0 empty empty empty 17 7 0 10 -262144 -1 -1 0
1;
#X obj 533 62 tgl 15 0 empty empty empty 17 7 0 10 -262144 -1 -1 0
1;
#N canvas 299 167 450 300 bubble 0;
#X obj 96 66 inlet;
#X obj 156 66 inlet;
#X obj 97 210 outlet;
#X restore 482 86 pd bubble;
#X floatatom 482 114 5 0 0 0 - - -;
#X obj 403 146 tgl 15 0 empty empty empty 17 7 0 10 -262144 -1 -1 0
1;
#X obj 454 147 tgl 15 0 empty empty empty 17 7 0 10 -262144 -1 -1 0
1;
#N canvas 299 167 450 300 bubble 0;
#X obj 96 66 inlet;
#X obj 156 66 inlet;
#X obj 97 210 outlet;
#X restore 403 171 pd bubble;
#X floatatom 403 199 5 0 0 0 - - -;
#X obj 481 146 tgl 15 0 empty empty empty 17 7 0 10 -262144 -1 -1 0
1;
#X obj 532 147 tgl 15 0 empty empty empty 17 7 0 10 -262144 -1 -1 0
1;
#N canvas 299 167 450 300 bubble 0;
#X obj 96 66 inlet;
#X obj 156 66 inlet;
#X obj 97 210 outlet;
#X restore 481 171 pd bubble;
#X floatatom 481 199 5 0 0 0 - - -;
#X obj 689 58 tgl 15 0 empty empty empty 17 7 0 10 -262144 -1 -1 0
1;
#X obj 740 59 tgl 15 0 empty empty empty 17 7 0 10 -262144 -1 -1 0
1;
#N canvas 299 167 450 300 bubble 0;
#X obj 96 66 inlet;
#X obj 156 66 inlet;
#X obj 97 210 outlet;
#X restore 689 83 pd bubble;
#X floatatom 689 111 5 0 0 0 - - -;
#X obj 783 58 tgl 15 0 empty empty empty 17 7 0 10 -262144 -1 -1 0
1;
#X obj 834 59 tgl 15 0 empty empty empty 17 7 0 10 -262144 -1 -1 0
1;
#N canvas 299 167 450 300 bubble 0;
#X obj 96 66 inlet;
#X obj 156 66 inlet;
#X obj 97 210 outlet;
#X restore 783 83 pd bubble;
#X floatatom 783 111 5 0 0 0 - - -;
#X obj 693 145 tgl 15 0 empty empty empty 17 7 0 10 -262144 -1 -1 0
1;
#X obj 744 146 tgl 15 0 empty empty empty 17 7 0 10 -262144 -1 -1 0
1;
#N canvas 299 167 450 300 bubble 0;
#X obj 96 66 inlet;
#X obj 156 66 inlet;
#X obj 97 210 outlet;
#X restore 693 170 pd bubble;
#X floatatom 693 198 5 0 0 0 - - -;
#X obj 780 139 tgl 15 0 empty empty empty 17 7 0 10 -262144 -1 -1 0
1;
#X obj 831 140 tgl 15 0 empty empty empty 17 7 0 10 -262144 -1 -1 0
1;
#N canvas 299 167 450 300 bubble 0;
#X obj 96 66 inlet;
#X obj 156 66 inlet;
#X obj 97 210 outlet;
#X restore 780 164 pd bubble;
#X floatatom 780 192 5 0 0 0 - - -;
#X obj 969 51 tgl 15 0 empty empty empty 17 7 0 10 -262144 -1 -1 0
1;
#X obj 1020 52 tgl 15 0 empty empty empty 17 7 0 10 -262144 -1 -1 0
1;
#N canvas 299 167 450 300 bubble 0;
#X obj 96 66 inlet;
#X obj 156 66 inlet;
#X obj 97 210 outlet;
#X restore 969 76 pd bubble;
#X floatatom 969 104 5 0 0 0 - - -;
#X obj 1060 50 tgl 15 0 empty empty empty 17 7 0 10 -262144 -1 -1 0
1;
#X obj 1111 51 tgl 15 0 empty empty empty 17 7 0 10 -262144 -1 -1 0
1;
#N canvas 299 167 450 300 bubble 0;
#X obj 96 66 inlet;
#X obj 156 66 inlet;
#X obj 97 210 outlet;
#X restore 1060 75 pd bubble;
#X floatatom 1060 103 5 0 0 0 - - -;
#X obj 968 140 tgl 15 0 empty empty empty 17 7 0 10 -262144 -1 -1 0
1;
#X obj 1019 141 tgl 15 0 empty empty empty 17 7 0 10 -262144 -1 -1
0 1;
#N canvas 299 167 450 300 bubble 0;
#X obj 96 66 inlet;
#X obj 156 66 inlet;
#X obj 97 210 outlet;
#X restore 968 165 pd bubble;
#X floatatom 968 193 5 0 0 0 - - -;
#X obj 1058 137 tgl 15 0 empty empty empty 17 7 0 10 -262144 -1 -1
0 1;
#X obj 1109 138 tgl 15 0 empty empty empty 17 7 0 10 -262144 -1 -1
0 1;
#N canvas 299 167 450 300 bubble 0;
#X obj 96 66 inlet;
#X obj 156 66 inlet;
#X obj 97 210 outlet;
#X restore 1058 162 pd bubble;
#X floatatom 1058 190 5 0 0 0 - - -;
#X msg 149 332 disconnect;
#X text 457 365 message to test the whole thing;
#X text 140 31 node of 4 bubbles;
#X text 400 33 node of 4 bubbles;
#X text 687 30 node of 4 bubbles;
#X text 966 26 node of 4 bubbles;
#X obj 22 -12 loadbang;
#X obj 22 15 tgl 15 0 empty empty empty 17 7 0 10 -262144 -1 -1 1 1
;
#X obj 22 75 bng 15 250 50 0 empty empty empty 17 7 0 10 -262144 -1
-1;
#X msg 169 366 send /pattern ----###-#--#--##-----#-#-#---##-;
#X obj 169 390 packOSC;
#X msg 125 309 connect 127.0.0.1 2222;
#X connect 0 0 3 0;
#X connect 1 0 3 1;
#X connect 2 0 75 0;
#X connect 3 0 4 0;
#X connect 7 0 9 0;
#X connect 8 0 9 1;
#X connect 9 0 10 0;
#X connect 11 0 13 0;
#X connect 12 0 13 1;
#X connect 13 0 14 0;
#X connect 15 0 17 0;
#X connect 16 0 17 1;
#X connect 17 0 18 0;
#X connect 19 0 21 0;
#X connect 20 0 21 1;
#X connect 21 0 22 0;
#X connect 23 0 25 0;
#X connect 24 0 25 1;
#X connect 25 0 26 0;
#X connect 27 0 29 0;
#X connect 28 0 29 1;
#X connect 29 0 30 0;
#X connect 31 0 33 0;
#X connect 32 0 33 1;
#X connect 33 0 34 0;
#X connect 35 0 37 0;
#X connect 36 0 37 1;
#X connect 37 0 38 0;
#X connect 39 0 41 0;
#X connect 40 0 41 1;
#X connect 41 0 42 0;
#X connect 43 0 45 0;
#X connect 44 0 45 1;
#X connect 45 0 46 0;
#X connect 47 0 49 0;
#X connect 48 0 49 1;
#X connect 49 0 50 0;
#X connect 51 0 53 0;
#X connect 52 0 53 1;
#X connect 53 0 54 0;
#X connect 55 0 57 0;
#X connect 56 0 57 1;
#X connect 57 0 58 0;
#X connect 59 0 61 0;
#X connect 60 0 61 1;
#X connect 61 0 62 0;
#X connect 63 0 65 0;
#X connect 64 0 65 1;
#X connect 65 0 66 0;
#X connect 67 0 6 0;
#X connect 73 0 74 0;
#X connect 74 0 2 0;
#X connect 76 0 77 0;
#X connect 77 0 6 0;
#X connect 78 0 6 0;
